<svg id="Capa_1" data-name="Capa 1" xmlns="http://www.w3.org/2000/svg" viewBox="0 0 416.67 287.9"><defs><style>.cls-1{fill:#aa5c3b;}</style></defs><title>iconos</title><path class="cls-1" d="M366.27,2.45H50.4A49.37,49.37,0,0,0,1,51.81V236.1A49.37,49.37,0,0,0,50.4,285.45H366.27a49.38,49.38,0,0,0,49.36-49.35V51.81A49.39,49.39,0,0,0,366.27,2.45ZM50.4,22.19H366.27a29.74,29.74,0,0,1,29.12,24.09L208.33,150.52,21.28,46.28A29.74,29.74,0,0,1,50.4,22.19ZM366.27,265.61H50.4A29.7,29.7,0,0,1,20.78,236V68.59L203.5,170.45a10.34,10.34,0,0,0,4.83,1.29,9.37,9.37,0,0,0,4.84-1.29L395.88,68.59V236A29.63,29.63,0,0,1,366.27,265.61Z"/></svg>