<svg id="Capa_1" data-name="Capa 1" xmlns="http://www.w3.org/2000/svg" viewBox="0 0 106.07 104.44"><defs><style>.cls-1{fill:#fff;}</style></defs><title>ultimos</title><path class="cls-1" d="M104,3.24a2,2,0,0,0-2-2H4.06a2,2,0,0,0-2,2v96a2,2,0,0,0,.58,1.41,8.56,8.56,0,0,0,12.1,0,4.59,4.59,0,0,1,6.47,0,8.57,8.57,0,0,0,12.1,0,2,2,0,0,0,.44-2.13L26.08,78.94a6,6,0,0,0-.43-9.57A53.16,53.16,0,0,0,36.64,37V26.31A30.25,30.25,0,0,0,53.05,14.86,30.28,30.28,0,0,0,69.43,26.31V37a53.16,53.16,0,0,0,11,32.36A6,6,0,0,0,80,78.94L72.31,98.55a2,2,0,0,0,.45,2.13,8.56,8.56,0,0,0,12.1,0,4.57,4.57,0,0,1,6.46,0,8.57,8.57,0,0,0,12.1,0,2,2,0,0,0,.58-1.41v-96ZM6.05,17.35a30.34,30.34,0,0,0,12.22,8.26V40a69,69,0,0,1-6.12,28.32H8a5.94,5.94,0,0,0-2,.34Zm2,55H22.31a2,2,0,0,1,0,4H8a2,2,0,1,1,0-4Zm3.9,25.54a4.59,4.59,0,0,1-5.89.49V80a5.94,5.94,0,0,0,2,.34h3.81l3.7,15.43A8.36,8.36,0,0,0,11.94,97.87Zm17.57.75A4.59,4.59,0,0,1,24,97.87a8.46,8.46,0,0,0-4.44-2.35L15.94,80.29h6.4ZM32.66,37A49.23,49.23,0,0,1,21.38,68.35H16.49A72.93,72.93,0,0,0,22.25,40V26.76a30,30,0,0,0,6.3.67,29.46,29.46,0,0,0,4.11-.29ZM28.55,23.45A26.29,26.29,0,0,1,7.77,13.2H49.32A26.26,26.26,0,0,1,28.55,23.45ZM56.77,13.2H98.33A26.29,26.29,0,0,1,77.55,23.45,26.29,26.29,0,0,1,56.77,13.2ZM100,17.38V68.69a5.94,5.94,0,0,0-2-.34h-4.1A69,69,0,0,1,87.8,40V25.62A30.29,30.29,0,0,0,100,17.38ZM73.41,37V27.14h0a29.89,29.89,0,0,0,4.14.29,29.73,29.73,0,0,0,6.27-.67V40a72.93,72.93,0,0,0,5.76,28.32H84.69A49.23,49.23,0,0,1,73.41,37ZM86.48,95.52A8.42,8.42,0,0,0,82,97.87a4.59,4.59,0,0,1-5.48.75l7.18-18.33h6.39ZM100,98.36a4.58,4.58,0,0,1-5.88-.49,8.42,8.42,0,0,0-3.61-2.15l3.7-15.43H98a5.94,5.94,0,0,0,2-.34Zm-2-22H83.76a2,2,0,1,1,0-4H98a2,2,0,0,1,0,4Zm2-67.09h-94v-4h94Z"/></svg>