<svg id="Capa_1" data-name="Capa 1" xmlns="http://www.w3.org/2000/svg" viewBox="0 0 37.08 37.08"><defs><style>.cls-1{fill:#977867;}.cls-2{fill:#f4e1c1;}</style></defs><title>iconos</title><path class="cls-1" d="M16.46,27.18V19.24H14.06c-.13,0-.18,0-.18-.17V15.89a1,1,0,0,1,0-.15h2.55V15a6.25,6.25,0,0,1,.16-1.83A4.26,4.26,0,0,1,19.47,10a2.26,2.26,0,0,1,.68-.12c1,0,2,0,3.05,0v3.48H20.59a.77.77,0,0,0-.85.78c0,.51,0,1,0,1.54H23.2v3.51H19.74c0,.07,0,.12,0,.17,0,2.56,0,5.12,0,7.67a.31.31,0,0,0,0,.1Z"/><path class="cls-2" d="M18.54,37.08A18.54,18.54,0,0,1,18.53,0h0a18.54,18.54,0,0,1,0,37.08ZM18.54,4h0a14.54,14.54,0,0,0,0,29.08h0A14.54,14.54,0,0,0,18.54,4Z"/></svg>