<svg id="Capa_1" data-name="Capa 1" xmlns="http://www.w3.org/2000/svg" viewBox="0 0 512 362"><defs><style>.cls-1{fill:#a95c3b;}</style></defs><title>iconos</title><path class="cls-1" d="M491.71,160H20.16C9.74,160,.71,167.8-.21,178.18A20,20,0,0,0,19.71,200H491.26c10.43,0,19.46-7.8,20.37-18.18A20,20,0,0,0,491.71,160Z"/><path class="cls-1" d="M491.71,0H20.16C9.74,0,.71,7.8-.21,18.18A20,20,0,0,0,19.71,40H491.26c10.43,0,19.46-7.8,20.37-18.18A20,20,0,0,0,491.71,0Z"/><path class="cls-1" d="M491.71,320H20.16C9.74,320,.71,327.8-.21,338.18A20,20,0,0,0,19.71,360H491.26c10.43,0,19.46-7.8,20.37-18.18A20,20,0,0,0,491.71,320Z"/></svg>