<svg id="Capa_1" data-name="Capa 1" xmlns="http://www.w3.org/2000/svg" viewBox="0 0 595.28 595.28"><defs><style>.cls-1{fill:#aa5c3b;}</style></defs><title>iconos</title><path class="cls-1" d="M589.11,307.32a87.62,87.62,0,0,0-87.06-77.82A86.41,86.41,0,0,0,481.79,232L494,101.43A87.6,87.6,0,0,0,406.75,5.61H188.51a87.6,87.6,0,0,0-87.27,95.82L113.48,232A87.57,87.57,0,1,0,73.75,402.54v99.52A38.9,38.9,0,0,0,103,539.61v20.85a29.23,29.23,0,0,0,29.2,29.2h58.41a29.23,29.23,0,0,0,29.2-29.2V541H375.51v19.47a29.22,29.22,0,0,0,29.2,29.2h58.41a29.23,29.23,0,0,0,29.2-29.2V539.61a38.9,38.9,0,0,0,29.2-37.55V402.54A87.61,87.61,0,0,0,589.11,307.32Zm-451-260a67.43,67.43,0,0,1,50.43-22.26H406.75a68.14,68.14,0,0,1,67.9,74.53L461.5,239.74a87.34,87.34,0,0,0-47.06,77.37v34.62A38.46,38.46,0,0,0,395,346.31H200.29a38.52,38.52,0,0,0-19.47,5.42V317.11a87.33,87.33,0,0,0-47.06-77.38L120.62,99.61A67.43,67.43,0,0,1,138.08,47.34ZM414.44,385.25v58.4H180.82v-58.4a19.49,19.49,0,0,1,19.47-19.47H395A19.48,19.48,0,0,1,414.44,385.25ZM93.22,502.06V394.39a9.82,9.82,0,0,0-.27-1.31,9.55,9.55,0,0,0-.38-1.9,9.35,9.35,0,0,0-.83-1.64,7.21,7.21,0,0,0-2.43-2.74,9.17,9.17,0,0,0-1.52-1,9.58,9.58,0,0,0-1.85-.62,9.31,9.31,0,0,0-1.26-.42A68.15,68.15,0,0,1,93.22,249a67.22,67.22,0,0,1,27.44,5.8,68,68,0,0,1,40.7,62.34V521.52H112.69A19.48,19.48,0,0,1,93.22,502.06Zm107.07,58.4a9.73,9.73,0,0,1-9.73,9.73H132.15a9.74,9.74,0,0,1-9.73-9.73V541h77.87v19.47ZM210,521.52H180.82v-58.4H414.44v58.4Zm262.82,38.94a9.74,9.74,0,0,1-9.73,9.73H404.71a9.73,9.73,0,0,1-9.73-9.73V541h77.87v19.47Zm37.74-175.72a1011.66,1011.66,0,0,0-3.11,1,9.17,9.17,0,0,0-1.52,1,7.21,7.21,0,0,0-2.43,2.74,9.35,9.35,0,0,0-.83,1.64,9.55,9.55,0,0,0-.38,1.9,9.82,9.82,0,0,0-.27,1.31V502.05a19.49,19.49,0,0,1-19.47,19.47H433.91V317.11a68,68,0,0,1,40.75-62.36A66.81,66.81,0,0,1,502.05,249a68.15,68.15,0,0,1,8.54,135.77Z"/><path class="cls-1" d="M93.22,287.9a29.21,29.21,0,1,0,29.2,29.21A29.21,29.21,0,0,0,93.22,287.9Zm0,38.94a9.74,9.74,0,1,1,9.73-9.73A9.74,9.74,0,0,1,93.22,326.84Z"/><path class="cls-1" d="M502.05,287.9a29.21,29.21,0,1,0,29.2,29.21A29.2,29.2,0,0,0,502.05,287.9Zm0,38.94a9.74,9.74,0,1,1,9.74-9.73A9.73,9.73,0,0,1,502.05,326.84Z"/><path class="cls-1" d="M200.29,171.09a29.2,29.2,0,1,0-29.2-29.2A29.2,29.2,0,0,0,200.29,171.09Zm0-38.93a9.74,9.74,0,1,1-9.73,9.73A9.74,9.74,0,0,1,200.29,132.16Z"/><path class="cls-1" d="M210,239.23a29.2,29.2,0,1,0,29.2-29.2A29.2,29.2,0,0,0,210,239.23Zm29.2-9.73a9.74,9.74,0,1,1-9.73,9.73A9.73,9.73,0,0,1,239.23,229.5Z"/><path class="cls-1" d="M356,268.44a29.21,29.21,0,1,0-29.2-29.21A29.2,29.2,0,0,0,356,268.44Zm0-38.94a9.74,9.74,0,1,1-9.73,9.73A9.73,9.73,0,0,1,356,229.5Z"/><path class="cls-1" d="M297.63,171.09a29.2,29.2,0,1,0-29.2-29.2A29.2,29.2,0,0,0,297.63,171.09Zm0-38.93a9.74,9.74,0,1,1-9.73,9.73A9.74,9.74,0,0,1,297.63,132.16Z"/><path class="cls-1" d="M395,171.09a29.2,29.2,0,1,0-29.21-29.2A29.2,29.2,0,0,0,395,171.09Zm0-38.93a9.74,9.74,0,1,1-9.74,9.73A9.73,9.73,0,0,1,395,132.16Z"/></svg>