<svg id="Capa_1" data-name="Capa 1" xmlns="http://www.w3.org/2000/svg" viewBox="0 0 191.05 87.04"><defs><style>.cls-1{fill:#fff;}</style></defs><title>familia de iconos</title><path class="cls-1" d="M186.15,55.26,167.1,32.89l-2.67-3.13.55,1.33V22.86c0-3,.23-6.2-.44-9.18A17.8,17.8,0,0,0,147,0H43.33A17.72,17.72,0,0,0,29.69,7a18.47,18.47,0,0,0-3.57,11.48V31.11l.55-1.32c-1.49,1.75-3,3.48-4.48,5.26,0,0-.17.26-.23.27.34-.1.63-.35-.08-.27a6.78,6.78,0,0,0-.86.22,29.56,29.56,0,0,0-3.52,1.27,8.51,8.51,0,0,0-2.75,1.7c-3.55,3.44-6.88,7.14-10.31,10.7a10.09,10.09,0,0,0-1.83,2.24c-1.51,3,.18,6.13,3.05,7.33l-.82-3.13a14.4,14.4,0,0,0-2.3,18.38,14.64,14.64,0,0,0,7,5.55,17.55,17.55,0,0,0,6.39.9h5.63l-1.87-1.88v6.8A1.9,1.9,0,0,0,21.55,87h6.74a1.9,1.9,0,0,0,1.87-1.87v-6.8l-1.87,1.88H157.36c1.72,0,3.52.16,5.23,0h.23l-1.88-1.88v6.8A1.9,1.9,0,0,0,162.82,87h6.73a1.9,1.9,0,0,0,1.88-1.87v-6.8l-1.88,1.88c3.55,0,7.49.44,10.93-.53a14.29,14.29,0,0,0,5.67-24.42c-1.78-1.62-4.44,1-2.65,2.65a10.65,10.65,0,0,1-1.74,17.21c-3.57,2-8.25,1.34-12.21,1.34a1.89,1.89,0,0,0-1.87,1.87v6.8l1.87-1.88h-6.73l1.87,1.88v-6.8a1.9,1.9,0,0,0-1.87-1.87h-118c-5.43,0-10.89-.19-16.31,0h-.23a1.9,1.9,0,0,0-1.88,1.87v6.8l1.88-1.88H21.55l1.88,1.88v-6.8a1.9,1.9,0,0,0-1.88-1.87c-3.95,0-8.63.68-12.2-1.34A10.63,10.63,0,0,1,7.49,58c1.14-1.06.38-2.62-.83-3.13-2.22-.93.16-3,1-3.88l5.06-5.25L17,41.28c1.3-1.35,3.23-1.89,5-2.39a5.85,5.85,0,0,0,2.6-.93c.22-.21.4-.47.6-.7l2.38-2.8c.56-.66,1.15-1.31,1.7-2a2.74,2.74,0,0,0,.57-2c0-4.2,0-8.4,0-12.6A14,14,0,0,1,39.8,4.32a20.8,20.8,0,0,1,5.93-.55h99c1.3,0,2.62,0,3.92,0a13.94,13.94,0,0,1,12.59,13.59c.06,4,0,8,0,11.93,0,1.23-.13,2.25.71,3.26s1.53,1.79,2.29,2.69l17.88,21,1.39,1.63C185.07,59.75,187.71,57.09,186.15,55.26Z"/><path class="cls-1" d="M103.42,27.46V22.63c0-1.43-.35-3.47.67-4.63a3.34,3.34,0,0,1,2.81-.89h28.23c1.77,0,5.19-.61,6.45,1,.93,1.2.56,3.34.56,4.75a38.61,38.61,0,0,1,0,4.93c-.37,2.9-3.93,2.3-6,2.3H107.49a8.91,8.91,0,0,1-2.07-.08,2.67,2.67,0,0,1-2-2.56c-.08-2.4-3.83-2.41-3.75,0a6.52,6.52,0,0,0,6.4,6.39c.73,0,1.47,0,2.2,0h25.86c2.58,0,6,.49,8.36-.75s3.4-3.86,3.4-6.53V20.28a6.63,6.63,0,0,0-4.44-6.61,10.3,10.3,0,0,0-3.27-.31H112.91c-2.38,0-4.81-.14-7.18,0a6.5,6.5,0,0,0-6.06,6.44c0,1.92,0,3.86,0,5.79v1.85A1.88,1.88,0,0,0,103.42,27.46Z"/><path class="cls-1" d="M51.61,17.11H82.06c2.19,0,5.5-.47,5.62,2.67.07,1.71,0,3.44,0,5.16,0,1.51.36,3.54-1,4.6a3.86,3.86,0,0,1-2.61.56H55.72c-1.91,0-5.35.64-6.44-1.4C48.61,27.43,49,25.35,49,24a20.94,20.94,0,0,1,.09-4.88,2.67,2.67,0,0,1,2.55-2c2.41-.09,2.42-3.84,0-3.75a6.52,6.52,0,0,0-6.39,6.43c0,1.9,0,3.81,0,5.71,0,2.38.06,4.66,1.88,6.48a6.94,6.94,0,0,0,5.11,1.87H76.49c2.8,0,5.62.06,8.42,0a6.51,6.51,0,0,0,6.21-4.43c.6-1.81.31-4.06.31-5.94s.28-4.21-.45-6.06a6.54,6.54,0,0,0-6.11-4.06c-2.87,0-5.74,0-8.6,0H51.61A1.88,1.88,0,0,0,51.61,17.11Z"/><path class="cls-1" d="M91.66,56.44h-62l1.81,1.37C29,51.18,22.86,48,16.07,47.4l1.33,3.2,2.43-2.53,1.52-1.57c.15-.15.29-.33.45-.47s-.39,0,.14,0a6.43,6.43,0,0,0,1.22-.45,18.33,18.33,0,0,1,1.9-.5,8.54,8.54,0,0,1,4.29.13,12.24,12.24,0,0,1,3.93,2.56c1.47,1.19,3.09,1.18,4.83,1.18H91.66l-1.88-1.87V58.31a1.88,1.88,0,0,0,3.75,0V47.07a1.9,1.9,0,0,0-1.87-1.88h-53c-.87,0-2.24.23-3-.29-.6-.41-1.12-1-1.71-1.44a12.81,12.81,0,0,0-3.45-1.82c-3-1-6.41-.45-9.29.65a5.88,5.88,0,0,0-2.11,1.12c-.5.47-1,1-1.44,1.49L14.75,48a1.9,1.9,0,0,0,1.32,3.2c5,.41,9.93,2.71,11.75,7.66a1.94,1.94,0,0,0,1.8,1.38h62A1.88,1.88,0,0,0,91.66,56.44Z"/></svg>