<svg id="Capa_1" data-name="Capa 1" xmlns="http://www.w3.org/2000/svg" viewBox="0 0 131.35 131.47"><defs><style>.cls-1{fill:#fff;}</style></defs><title>familia de iconos</title><path class="cls-1" d="M127,.12H4.38A4.39,4.39,0,0,0,0,4.5v6.57a4.39,4.39,0,0,0,4.38,4.38V48.28A8.76,8.76,0,0,0,13.13,57H70.05a4.38,4.38,0,0,1,4.38,4.38v56.91a8.76,8.76,0,0,0,8.76,8.76H116a4.38,4.38,0,0,0,4.38,4.38H127a4.39,4.39,0,0,0,4.38-4.38V4.5A4.4,4.4,0,0,0,127,.12ZM83.19,122.71a4.38,4.38,0,0,1-4.38-4.38V70.17h6.56a2.19,2.19,0,1,0,0-4.37H78.81V61.42a8.78,8.78,0,0,0-8.76-8.76H65.67V46.09a2.19,2.19,0,0,0-4.38,0v6.57H13.13a4.38,4.38,0,0,1-4.37-4.38V15.45h4.78a6.54,6.54,0,0,0-.41,2.19v8.75A6.58,6.58,0,0,0,19.7,33H50.35a6.58,6.58,0,0,0,6.57-6.57V17.64a6.54,6.54,0,0,0-.41-2.19H77a6.53,6.53,0,0,0-.4,2.19v8.75A6.57,6.57,0,0,0,83.19,33H96.32a2.19,2.19,0,0,1,2.19,2.19V48.28a6.57,6.57,0,0,0,6.57,6.57h8.75a6.53,6.53,0,0,0,2.19-.4V75a6.54,6.54,0,0,0-2.19-.41h-8.75a6.57,6.57,0,0,0-6.57,6.57v30.65a6.57,6.57,0,0,0,6.57,6.56h8.75a6.29,6.29,0,0,0,2.19-.4v4.78ZM52.54,17.64v8.75a2.19,2.19,0,0,1-2.19,2.19H19.7a2.19,2.19,0,0,1-2.19-2.19V17.64a2.19,2.19,0,0,1,2.19-2.19H50.35A2.19,2.19,0,0,1,52.54,17.64ZM116,111.77a2.2,2.2,0,0,1-2.19,2.19h-8.75a2.2,2.2,0,0,1-2.19-2.19V81.12a2.19,2.19,0,0,1,2.19-2.19h8.75A2.19,2.19,0,0,1,116,81.12Zm0-94.13V48.28a2.19,2.19,0,0,1-2.19,2.19h-8.75a2.19,2.19,0,0,1-2.19-2.19V35.15a6.58,6.58,0,0,0-6.57-6.57H83.19A2.19,2.19,0,0,1,81,26.39V17.64a2.19,2.19,0,0,1,2.19-2.19h30.64A2.19,2.19,0,0,1,116,17.64Zm11,109.45H120.4V15.45A4.38,4.38,0,0,0,116,11.07H4.38V4.5H127Z"/></svg>