<svg id="Capa_1" data-name="Capa 1" xmlns="http://www.w3.org/2000/svg" viewBox="0 0 107.29 107.29"><defs><style>.cls-1{fill:#fff;}.cls-2{fill:#aa5c3b;opacity:0.5;}</style></defs><title>familia de iconos</title><path class="cls-1" d="M106.69,41A15,15,0,0,0,95.43,30.14,12.33,12.33,0,0,0,94.08,30,38.49,38.49,0,0,0,56.47,0h-6A38.52,38.52,0,0,0,12.89,30a14.85,14.85,0,0,0-7.8,3.34A14.83,14.83,0,0,0,5.8,56.56V83.45a11.89,11.89,0,0,0,6,10.26v4.64a8.95,8.95,0,0,0,17.89,0v-3H77.33v3a8.95,8.95,0,0,0,17.89,0V93.71a11.89,11.89,0,0,0,6-10.26V56.57A14.93,14.93,0,0,0,106.69,41ZM50.5,6h6a32.57,32.57,0,0,1,31.6,24.51,14.61,14.61,0,0,0-5.22,2.66A14.83,14.83,0,0,0,77.33,44.7V59.6H29.64V45.34A15.5,15.5,0,0,0,18.91,30.45,32.57,32.57,0,0,1,50.5,6ZM83.29,68.54a3,3,0,0,1-3,3H26.66a3,3,0,0,1,0-6H80.31A3,3,0,0,1,83.29,68.54ZM23.68,98.35a3,3,0,1,1-6,0v-3h6Zm65.57,0a3,3,0,0,1-6,0v-3h6ZM96.69,52.4A3,3,0,0,0,95.21,55V83.45a6,6,0,0,1-6,6H17.72a6,6,0,0,1-6-6V55a3,3,0,0,0-1.48-2.57A8.85,8.85,0,0,1,5.8,44.7a8.94,8.94,0,0,1,10.46-8.81c4.23.68,7.42,4.75,7.42,9.45V60.15a8.92,8.92,0,0,0,3,17.34H80.31a8.92,8.92,0,0,0,3-17.34V44.7a8.94,8.94,0,1,1,13.4,7.7Z"/><path class="cls-1" d="M106.69,41A15,15,0,0,0,95.43,30.14,12.33,12.33,0,0,0,94.08,30,38.49,38.49,0,0,0,56.47,0h-6A38.52,38.52,0,0,0,12.89,30a14.85,14.85,0,0,0-7.8,3.34A14.83,14.83,0,0,0,5.8,56.56V83.45a11.89,11.89,0,0,0,6,10.26v4.64a8.95,8.95,0,0,0,17.89,0v-3H77.33v3a8.95,8.95,0,0,0,17.89,0V93.71a11.89,11.89,0,0,0,6-10.26V56.57A14.93,14.93,0,0,0,106.69,41Z"/><path class="cls-2" d="M50.5,6h6a32.57,32.57,0,0,1,31.6,24.51,14.61,14.61,0,0,0-5.22,2.66A14.83,14.83,0,0,0,77.33,44.7V59.6H29.64V45.34A15.5,15.5,0,0,0,18.91,30.45,32.57,32.57,0,0,1,50.5,6Z"/><path class="cls-2" d="M83.29,68.54a3,3,0,0,1-3,3H26.66a3,3,0,0,1,0-6H80.31A3,3,0,0,1,83.29,68.54Z"/><path class="cls-2" d="M23.68,98.35a3,3,0,1,1-6,0v-3h6Z"/><path class="cls-2" d="M89.25,98.35a3,3,0,0,1-6,0v-3h6Z"/><path class="cls-2" d="M96.69,52.4A3,3,0,0,0,95.21,55V83.45a6,6,0,0,1-6,6H17.72a6,6,0,0,1-6-6V55a3,3,0,0,0-1.48-2.57A8.85,8.85,0,0,1,5.8,44.7a8.94,8.94,0,0,1,10.46-8.81c4.23.68,7.42,4.75,7.42,9.45V60.15a8.92,8.92,0,0,0,3,17.34H80.31a8.92,8.92,0,0,0,3-17.34V44.7a8.94,8.94,0,1,1,13.4,7.7Z"/></svg>