<svg id="Capa_1" data-name="Capa 1" xmlns="http://www.w3.org/2000/svg" viewBox="0 0 147.74 82.44"><defs><style>.cls-1{fill:#fff;}</style></defs><title>familia de iconos</title><path class="cls-1" d="M140.43,22.56H137.5V11.67A11.68,11.68,0,0,0,125.83,0H83.52A11.68,11.68,0,0,0,74,4.92,11.68,11.68,0,0,0,64.49,0H22.17A11.69,11.69,0,0,0,10.5,11.67V22.56H7.57A7.32,7.32,0,0,0,.26,29.87V52.43A15.24,15.24,0,0,0,15.48,67.65h1.09L14.2,74a6.31,6.31,0,0,0,5.86,8.42h3.47a6.26,6.26,0,0,0,5-2.47l9.32-12.32h72.35L119.49,80a6.28,6.28,0,0,0,5,2.47H128A6.3,6.3,0,0,0,133.8,74l-2.37-6.37h1.09a15.24,15.24,0,0,0,15.22-15.22V29.87A7.32,7.32,0,0,0,140.43,22.56ZM76.16,11.68a7.37,7.37,0,0,1,7.36-7.36h42.31a7.36,7.36,0,0,1,7.35,7.36V22.57h-4.07a7.49,7.49,0,0,0-6.74,4.48,7.27,7.27,0,0,0-.55,2.34h-36a14.18,14.18,0,0,0-9.68,3.89Zm0,31.71a9.69,9.69,0,0,1,9.68-9.68h36V46.46H76.16ZM14.82,11.67a7.36,7.36,0,0,1,7.35-7.35H64.49a7.36,7.36,0,0,1,7.35,7.35V33.28l-.14-.13a14.15,14.15,0,0,0-9.53-3.76h-36A7.42,7.42,0,0,0,21.29,23a7.29,7.29,0,0,0-2.4-.41H14.82Zm57,31.72v3.07H26.2V33.71h36A9.69,9.69,0,0,1,71.84,43.39Zm-46.77,34a2,2,0,0,1-1.54.76H20.05a1.94,1.94,0,0,1-1.8-2.59l2.93-7.88H32.41ZM128,78.12h-3.48a1.91,1.91,0,0,1-1.53-.76l-7.34-9.71h11.23l2.92,7.88A1.94,1.94,0,0,1,128,78.12Zm4.57-14.79h-117a10.91,10.91,0,0,1-10.9-10.9V29.87a3,3,0,0,1,3-3H18.89a3,3,0,0,1,3,3V48.62A2.16,2.16,0,0,0,24,50.78H124a2.16,2.16,0,0,0,2.16-2.16V29.87a3,3,0,0,1,3-3h11.32a3,3,0,0,1,3,3V52.43h0A10.91,10.91,0,0,1,132.52,63.33Z"/></svg>