<svg id="Capa_1" data-name="Capa 1" xmlns="http://www.w3.org/2000/svg" viewBox="0 0 128.62 129.32"><defs><style>.cls-1{fill:#fff;}</style></defs><title>familia de iconos</title><path class="cls-1" d="M127.23,7.8a6.26,6.26,0,0,0-5.71-5.74,463,463,0,0,0-80.72,0,6.3,6.3,0,0,0-5.72,5.78Q34,21.12,33.6,33.82c-8.72.25-17.44.77-26.1,1.54a6.3,6.3,0,0,0-5.72,5.78,464.55,464.55,0,0,0,0,80.77,6.28,6.28,0,0,0,5.68,5.64c13.42,1.16,26.93,1.77,40.43,1.77s27-.61,40.42-1.77a6.29,6.29,0,0,0,5.7-5.66q1.19-12.73,1.56-26.1c8.7-.27,17.4-.79,26-1.54a6.29,6.29,0,0,0,5.7-5.66A465.77,465.77,0,0,0,127.23,7.8ZM91.37,95.92c-.25,8.72-.77,17.27-1.54,25.59a2.14,2.14,0,0,1-1.91,1.9,460.16,460.16,0,0,1-80.13,0,2.14,2.14,0,0,1-1.91-1.9,460,460,0,0,1,0-80,2.17,2.17,0,0,1,2-2c8.49-.75,17-1.25,25.59-1.52,1.38,0,11-.23,14.38-.23,13.36,0,26.73.58,40,1.75a2.16,2.16,0,0,1,1.94,2C91.22,58.73,91.41,94.54,91.37,95.92Zm31.76-7.7a2.14,2.14,0,0,1-1.92,1.89q-12.76,1.13-25.59,1.52A498.29,498.29,0,0,0,93.93,41.1a6.25,6.25,0,0,0-5.7-5.74,464.94,464.94,0,0,0-50.49-1.67q.43-12.45,1.48-25.51a2.17,2.17,0,0,1,2-2C54.43,5,67.79,4.45,81.15,4.45s26.72.58,40,1.75a2.17,2.17,0,0,1,1.94,2A462.32,462.32,0,0,1,123.13,88.22Z"/><path class="cls-1" d="M33.79,51.81a2.08,2.08,0,0,0-2.94,0L25,57.7l-5.89-5.89a2.08,2.08,0,1,0-2.94,2.94L22,60.64l-5.89,5.89a2.08,2.08,0,1,0,2.94,2.94L25,63.58l5.89,5.89a2.08,2.08,0,1,0,2.94-2.94l-5.88-5.89,5.88-5.89A2.08,2.08,0,0,0,33.79,51.81Z"/><path class="cls-1" d="M79.58,51.81a2.09,2.09,0,0,0-3,0L70.75,57.7l-5.89-5.89a2.08,2.08,0,1,0-2.94,2.94l5.88,5.89-5.88,5.89a2.08,2.08,0,1,0,2.94,2.94l5.89-5.89,5.88,5.89a2.08,2.08,0,0,0,3-2.94l-5.89-5.89,5.89-5.89A2.08,2.08,0,0,0,79.58,51.81Z"/><path class="cls-1" d="M33.79,97.6a2.06,2.06,0,0,0-2.94,0L25,103.48,19.07,97.6a2.05,2.05,0,0,0-2-.57,2.08,2.08,0,0,0-.92,3.51L22,106.43l-5.89,5.88a2.08,2.08,0,0,0,.92,3.51,2.07,2.07,0,0,0,2-.56L25,109.37l5.89,5.89a2.09,2.09,0,0,0,3.51-.92,2.1,2.1,0,0,0-.57-2l-5.88-5.88,5.88-5.89A2.08,2.08,0,0,0,33.79,97.6Z"/><path class="cls-1" d="M79.58,97.6a2.08,2.08,0,0,0-3,0l-5.88,5.88L64.86,97.6a2.06,2.06,0,0,0-2-.57,2.08,2.08,0,0,0-.92,3.51l5.88,5.89-5.88,5.88a2.08,2.08,0,0,0,.92,3.51,2.08,2.08,0,0,0,2-.56l5.89-5.89,5.88,5.89a2.09,2.09,0,0,0,3-3l-5.89-5.88,5.89-5.89A2.08,2.08,0,0,0,79.58,97.6Z"/></svg>