<svg id="Capa_1" data-name="Capa 1" xmlns="http://www.w3.org/2000/svg" viewBox="0 0 141.51 72.83"><defs><style>.cls-1{fill:#fff;}</style></defs><title>familia de iconos</title><path class="cls-1" d="M137.59,17.26V8.43A8.44,8.44,0,0,0,129.16,0H12.35A8.44,8.44,0,0,0,3.92,8.43v8.83A6,6,0,0,0,0,22.88v.06a6,6,0,0,0,6,6H12.6l-4,38.22a5.08,5.08,0,0,0,10.06,1.44L26,28.93h89.43l7.43,39.66A5.08,5.08,0,0,0,133,67.17L130.83,47h0l-.92-8.73h0l-.11-1v-.12h0l-.87-8.21h6.6a6,6,0,0,0,6-6v-.06A6,6,0,0,0,137.59,17.26ZM8.06,8.43a4.29,4.29,0,0,1,4.29-4.28H129.16a4.29,4.29,0,0,1,4.29,4.28v8.46H8.06Zm6.47,59.42v.05a.93.93,0,0,1-.92.78,1,1,0,0,1-.71-.31,1,1,0,0,1-.22-.76l4.09-38.68h5.07ZM126.59,46.39h0l.11,1,2.14,20.27a.89.89,0,0,1-.23.73.9.9,0,0,1-.7.31.93.93,0,0,1-.92-.78v-.05l-7.3-38.92h5.07l.87,8.28.09.77Zm10.77-23.45a1.84,1.84,0,0,1-1.84,1.84H6a1.84,1.84,0,0,1-1.84-1.84v-.06A1.84,1.84,0,0,1,6,21H135.52a1.84,1.84,0,0,1,1.84,1.84Z"/></svg>