<svg id="Capa_1" data-name="Capa 1" xmlns="http://www.w3.org/2000/svg" viewBox="0 0 165.75 90.57"><defs><style>.cls-1{fill:#fff;}</style></defs><title>familia de iconos</title><path class="cls-1" d="M163.79,2.42A7.48,7.48,0,0,0,158.29,0h-2.22A11.06,11.06,0,0,0,145,10.14l-2.39,27.28A4.63,4.63,0,0,1,138,41.67H117.25a12.05,12.05,0,0,0-12,12v1.2a7.28,7.28,0,0,0,7.27,7.27h4.45l-4.38,14.29v0L109.2,87.43a2.43,2.43,0,0,0,4.64,1.42l2.82-9.21H150l2.82,9.21a2.43,2.43,0,0,0,4.65-1.42l-7.94-25.92a19.11,19.11,0,0,0,3.1-1.2h0l.57-.31.33-.17.15-.11c2.19-1.34,7.18-5,8.37-11.37h0a18.4,18.4,0,0,0,.4-2.45l3.32-37.78A7.48,7.48,0,0,0,163.79,2.42ZM112.48,57.33a2.43,2.43,0,0,1-2.42-2.42v-1.2a7.2,7.2,0,0,1,7.19-7.19H138a9.46,9.46,0,0,0,9.47-8.67l2.39-27.28a6.22,6.22,0,0,1,6.23-5.71h2.22a2.59,2.59,0,0,1,1.92.84,2.56,2.56,0,0,1,.67,2l-3.31,37.78a13.13,13.13,0,0,1-.42,2.25,14,14,0,0,1-5.83,7.79,1.33,1.33,0,0,0-.24.1,9.16,9.16,0,0,1-.82.43,12.91,12.91,0,0,1-5.64,1.29H112.48Zm5.67,17.45L122,62.19h22.62l3.85,12.59Z"/><path class="cls-1" d="M48.49,41.67H27.77a4.62,4.62,0,0,1-4.63-4.24l-2.4-27.29A11,11,0,0,0,9.67,0H7.46A7.46,7.46,0,0,0,0,8.11L3.34,45.89A17.86,17.86,0,0,0,16.26,61.51L8.32,87.43a2.43,2.43,0,0,0,1.61,3,2.56,2.56,0,0,0,.71.11A2.44,2.44,0,0,0,13,88.85l2.82-9.21H49.09l2.82,9.21a2.44,2.44,0,0,0,2.32,1.72,2.56,2.56,0,0,0,.71-.11,2.43,2.43,0,0,0,1.61-3L53.21,76.5v0L48.82,62.19h4.44a7.29,7.29,0,0,0,7.28-7.28v-1.2A12.05,12.05,0,0,0,48.49,41.67ZM17.27,74.78l3.86-12.59H43.74L47.6,74.78Zm36-17.45H21.13a13.13,13.13,0,0,1-1.54-.09h0A12.92,12.92,0,0,1,8.18,45.47L4.87,7.69a2.56,2.56,0,0,1,.67-2,2.59,2.59,0,0,1,1.92-.84H9.67a6.23,6.23,0,0,1,6.24,5.71L18.3,37.85h0a9.45,9.45,0,0,0,9.47,8.67H48.49a7.2,7.2,0,0,1,7.19,7.19v1.2h0A2.42,2.42,0,0,1,53.26,57.33Z"/><path class="cls-1" d="M101.31,82.56A8.74,8.74,0,0,0,92.85,76h-1.5V31.82h29.89A5.7,5.7,0,0,0,126.83,25a11,11,0,0,0-10.74-8.76H49.66A11,11,0,0,0,38.91,25a5.71,5.71,0,0,0,5.59,6.86H74.4V76H72.9a8.74,8.74,0,0,0-8.46,6.54l-.57,2.19a4.65,4.65,0,0,0,4.5,5.82h29a4.65,4.65,0,0,0,4.5-5.82ZM44.5,27a.84.84,0,0,1-.83-1,6.14,6.14,0,0,1,6-4.89h66.43a6.16,6.16,0,0,1,6,4.89.84.84,0,0,1-.18.71.85.85,0,0,1-.66.31Zm42,4.86V76H79.26V31.82ZM68.63,85.71l.51-1.93a3.88,3.88,0,0,1,3.76-2.91H92.85a3.89,3.89,0,0,1,3.76,2.91l.5,1.93Z"/></svg>