<svg id="Capa_1" data-name="Capa 1" xmlns="http://www.w3.org/2000/svg" viewBox="0 0 139.77 107.82"><defs><style>.cls-1{fill:#fff;}</style></defs><title>familia de iconos</title><path class="cls-1" d="M128.82.25a10.72,10.72,0,0,0-10,7.21,10.65,10.65,0,0,0,4.34,12.19L122.23,18v8.16l1.87-1.87H95.71l1.81,1.37a28.82,28.82,0,0,0-56.68,0l1.8-1.37H15.47l1.87,1.87V18l-.93,1.62a10.72,10.72,0,0,0,4.87-9.21,10.69,10.69,0,0,0-5-8.6A10.62,10.62,0,0,0,.4,8.92,10.71,10.71,0,0,0,5.09,19.65L4.16,18v87.6A1.9,1.9,0,0,0,6,107.51h9.44a1.9,1.9,0,0,0,1.87-1.88V89.34l-1.87,1.87H119.65a37.84,37.84,0,0,0,4.26,0h.19l-1.87-1.87v16.29a1.9,1.9,0,0,0,1.87,1.88h9.44a1.9,1.9,0,0,0,1.88-1.88V18l-.93,1.62a10.65,10.65,0,0,0,4.32-12.19,10.72,10.72,0,0,0-10-7.21c-2.42,0-2.42,3.71,0,3.75a6.8,6.8,0,0,1,6.28,9.39,6.55,6.55,0,0,1-1.27,2c-.56.6-1.49,1-1.91,1.74a4.69,4.69,0,0,0-.25,2.27v86.27l1.87-1.87H124.1l1.88,1.87V89.34a1.9,1.9,0,0,0-1.88-1.88H28.86c-4.38,0-8.81-.17-13.19,0a1.21,1.21,0,0,1-.19,0,1.9,1.9,0,0,0-1.88,1.88v16.29l1.88-1.87H6l1.87,1.87V20.76c0-.89.06-1.8,0-2.69s-.65-1.39-1.4-2a7,7,0,0,1-1.88-2.37,6.78,6.78,0,1,1,12.64-1.05A6.7,6.7,0,0,1,16.06,15c-.65.82-1.91,1.36-2.31,2.31a7,7,0,0,0-.16,2.55v6.33a1.9,1.9,0,0,0,1.88,1.88H42.64a1.9,1.9,0,0,0,1.81-1.38,25.09,25.09,0,0,1,49.45,0,1.9,1.9,0,0,0,1.81,1.38H124.1A1.9,1.9,0,0,0,126,26.19v-7.5a2.69,2.69,0,0,0-1.22-2.48,6.87,6.87,0,0,1-2.27-7.91A6.9,6.9,0,0,1,128.82,4C131.23,4,131.24.21,128.82.25Z"/><path class="cls-1" d="M31.47,78h-16l1.87,1.87V35.63l-1.87,1.88h16L29.6,35.63V79.9a1.88,1.88,0,0,0,3.75,0V35.63a1.9,1.9,0,0,0-1.88-1.87h-16a1.9,1.9,0,0,0-1.88,1.87V79.9a1.9,1.9,0,0,0,1.88,1.88h16A1.88,1.88,0,0,0,31.47,78Z"/><path class="cls-1" d="M42.8,79.9V35.64l-1.88,1.88H51.68a1.9,1.9,0,0,0,1.87-1.88v0l-1.87,1.87H54.3l-1.87-1.87V79.9L54.3,78H40.92a1.88,1.88,0,0,0,0,3.75H54.3a1.9,1.9,0,0,0,1.88-1.87V35.62a1.9,1.9,0,0,0-1.88-1.88H51.68a1.91,1.91,0,0,0-1.88,1.88v0l1.88-1.87H40.92a1.9,1.9,0,0,0-1.87,1.87V79.9A1.88,1.88,0,0,0,42.8,79.9Z"/><path class="cls-1" d="M65.62,79.9V35.62l-1.88,1.87H74l-1.87-1.87V79.9L74,78H63.74a1.88,1.88,0,0,0,0,3.75H74a1.91,1.91,0,0,0,1.88-1.87V35.62A1.9,1.9,0,0,0,74,33.74H63.74a1.9,1.9,0,0,0-1.87,1.88V79.9A1.88,1.88,0,0,0,65.62,79.9Z"/><path class="cls-1" d="M99.56,78H83.43l1.88,1.87V35.62l-1.88,1.87h3.25l-1.87-1.87h0a1.9,1.9,0,0,0,1.87,1.88H99.57l-1.88-1.88V79.9a1.88,1.88,0,0,0,3.75,0V35.63a1.9,1.9,0,0,0-1.87-1.87H86.68l1.88,1.87h0a1.9,1.9,0,0,0-1.88-1.88H83.43a1.9,1.9,0,0,0-1.87,1.88V79.9a1.9,1.9,0,0,0,1.87,1.88H99.56A1.88,1.88,0,0,0,99.56,78Z"/><path class="cls-1" d="M122.23,41.48V79.9L124.1,78H109l1.87,1.88V35.63L109,37.51H124.1l-1.87-1.88v5.85a1.88,1.88,0,0,0,3.75,0V35.63a1.9,1.9,0,0,0-1.88-1.87H109a1.9,1.9,0,0,0-1.88,1.87V79.9A1.9,1.9,0,0,0,109,81.77H124.1A1.9,1.9,0,0,0,126,79.9V41.48A1.88,1.88,0,0,0,122.23,41.48Z"/></svg>