<svg id="Capa_1" data-name="Capa 1" xmlns="http://www.w3.org/2000/svg" viewBox="0 0 107.29 107.29"><defs><style>.cls-1{fill:#fff;}</style></defs><title>familia de iconos</title><path class="cls-1" d="M106.85,41A15,15,0,0,0,95.58,30.14,11.92,11.92,0,0,0,94.24,30,38.49,38.49,0,0,0,56.63,0h-6A38.52,38.52,0,0,0,13.05,30a14.85,14.85,0,0,0-7.8,3.34A14.83,14.83,0,0,0,6,56.56V83.45a11.89,11.89,0,0,0,6,10.26v4.64a8.94,8.94,0,0,0,17.88,0v-3H77.49v3a8.95,8.95,0,0,0,17.89,0V93.71a11.89,11.89,0,0,0,6-10.26V56.57A14.93,14.93,0,0,0,106.85,41ZM50.66,6h6a32.57,32.57,0,0,1,31.6,24.51A14.61,14.61,0,0,0,83,33.13,14.83,14.83,0,0,0,77.49,44.7V59.6H29.8V45.34A15.5,15.5,0,0,0,19.07,30.45,32.57,32.57,0,0,1,50.66,6ZM83.45,68.54a3,3,0,0,1-3,3H26.82a3,3,0,0,1,0-6H80.47A3,3,0,0,1,83.45,68.54ZM23.84,98.35a3,3,0,1,1-6,0v-3h6Zm65.57,0a3,3,0,0,1-6,0v-3h6ZM96.85,52.4A3,3,0,0,0,95.37,55V83.45a6,6,0,0,1-6,6H17.88a6,6,0,0,1-6-6V55a3,3,0,0,0-1.48-2.57A8.85,8.85,0,0,1,6,44.7a8.94,8.94,0,0,1,10.46-8.81c4.23.68,7.42,4.75,7.42,9.45V60.15a8.92,8.92,0,0,0,3,17.34H80.47a8.92,8.92,0,0,0,3-17.34V44.7a8.94,8.94,0,1,1,13.4,7.7Z"/></svg>