<svg id="Capa_1" data-name="Capa 1" xmlns="http://www.w3.org/2000/svg" viewBox="0 0 595.28 595.28"><defs><style>.cls-1{fill:#aa5c3b;}</style></defs><title>information</title><path class="cls-1" d="M297.64,99.21a49.61,49.61,0,1,0,49.6,49.61A49.66,49.66,0,0,0,297.64,99.21Zm0,74.41a24.8,24.8,0,1,1,24.8-24.8A24.83,24.83,0,0,1,297.64,173.62Z"/><path class="cls-1" d="M334.84,223.23H235.63a12.4,12.4,0,0,0-12.4,12.4v49.61a12.4,12.4,0,0,0,12.4,12.4H248v186a12.39,12.39,0,0,0,12.4,12.4h74.41a12.39,12.39,0,0,0,12.41-12.4v-248A12.41,12.41,0,0,0,334.84,223.23Zm-12.4,248H272.83v-186a12.39,12.39,0,0,0-12.4-12.41H248V248h74.41V471.26Z"/><path class="cls-1" d="M297.64,0C133.52,0,0,133.52,0,297.64S133.52,595.28,297.64,595.28,595.28,461.75,595.28,297.64,461.75,0,297.64,0Zm0,570.47C147.2,570.47,24.8,448.08,24.8,297.64S147.2,24.8,297.64,24.8,570.47,147.2,570.47,297.64,448.08,570.47,297.64,570.47Z"/></svg>