<svg id="Capa_1" data-name="Capa 1" xmlns="http://www.w3.org/2000/svg" viewBox="0 0 37.08 37.08"><defs><style>.cls-1{fill:#f4e1c1;}.cls-2{fill:#977867;}</style></defs><title>iconos</title><path class="cls-1" d="M18.54,37.08A18.54,18.54,0,0,1,18.53,0h0a18.54,18.54,0,0,1,0,37.08ZM18.54,4h0a14.54,14.54,0,0,0,0,29.08h0A14.54,14.54,0,0,0,18.54,4Z"/><path class="cls-2" d="M27.71,13.81v9.45c0,.12-.07.23-.09.34a4.91,4.91,0,0,1-2.51,3.45,11.61,11.61,0,0,1-1.85.66H13.82a3.37,3.37,0,0,0-.34-.09A4.88,4.88,0,0,1,10,25.12a14.36,14.36,0,0,1-.66-1.84V13.82l.09-.34A4.9,4.9,0,0,1,12,10a14,14,0,0,1,1.85-.66h9.45l.27.08A4.86,4.86,0,0,1,27,11.93,12,12,0,0,1,27.71,13.81ZM18.53,26.09h3.95a3.46,3.46,0,0,0,3.61-3.62q0-3.93,0-7.87A3.44,3.44,0,0,0,22.47,11H14.6A3.44,3.44,0,0,0,11,14.62q0,3.93,0,7.86a3.45,3.45,0,0,0,3.62,3.61Z"/><path class="cls-2" d="M18.55,23.27a4.73,4.73,0,1,1,4.72-4.72A4.74,4.74,0,0,1,18.55,23.27Zm0-1.63a3.1,3.1,0,1,0-3.1-3.1A3.12,3.12,0,0,0,18.54,21.64Z"/><path class="cls-2" d="M23.49,14.81a1.19,1.19,0,0,1-.06-2.37,1.2,1.2,0,0,1,1.23,1.19A1.19,1.19,0,0,1,23.49,14.81Z"/></svg>