<svg id="Capa_1" data-name="Capa 1" xmlns="http://www.w3.org/2000/svg" viewBox="0 0 106.07 104.44"><defs><style>.cls-1{fill:#fff;}</style></defs><title>ultimos</title><path class="cls-1" d="M32.09,45.68v.06a11.13,11.13,0,0,0,6.35,10.63l.05,0a7.48,7.48,0,0,1,3.39,3.26v0a11.65,11.65,0,0,0,10.94,6.1h.07A8.07,8.07,0,0,1,57.61,67a11.9,11.9,0,0,0,12.66,0A8,8,0,0,1,75,65.78h.07A11.63,11.63,0,0,0,86,59.67v0a7.53,7.53,0,0,1,3.4-3.27h0a11.14,11.14,0,0,0,6.36-10.63v-.06A7.17,7.17,0,0,1,97,41.26a11,11,0,0,0,0-12.39,7.18,7.18,0,0,1-1.24-4.41v-.07a11.14,11.14,0,0,0-6.36-10.62l0,0A7.46,7.46,0,0,1,86,10.5l0-.05a11.65,11.65,0,0,0-10.93-6.1H75a8,8,0,0,1-4.71-1.23h0a12,12,0,0,0-12.66,0A7.92,7.92,0,0,1,52.9,4.35h-.07a11.65,11.65,0,0,0-10.94,6.1v0a7.48,7.48,0,0,1-3.4,3.27l0,0a11.13,11.13,0,0,0-6.35,10.62v.06a7.08,7.08,0,0,1-1.24,4.42,11,11,0,0,0,0,12.39A7.1,7.1,0,0,1,32.09,45.68ZM34,31.05a10.94,10.94,0,0,0,1.92-6.81v-.07a7.31,7.31,0,0,1,4.2-6.94l0,0a11.33,11.33,0,0,0,5.13-4.93v0a7.82,7.82,0,0,1,7.34-4.05h.06a11.69,11.69,0,0,0,7-1.81,8.08,8.08,0,0,1,8.57,0,11.71,11.71,0,0,0,7,1.81h.07a7.8,7.8,0,0,1,7.33,4l0,0a11.31,11.31,0,0,0,5.12,4.93h0a7.3,7.3,0,0,1,4.2,7v.07a11,11,0,0,0,1.91,6.81,7.1,7.1,0,0,1,0,8A11,11,0,0,0,92,45.9V46a7.3,7.3,0,0,1-4.2,6.95l0,0a11.35,11.35,0,0,0-5.13,4.94v0A7.79,7.79,0,0,1,75.25,62h-.07a11.85,11.85,0,0,0-7,1.81,8.06,8.06,0,0,1-8.56,0,11.87,11.87,0,0,0-6.32-1.83l-.65,0h-.06a7.81,7.81,0,0,1-7.34-4.06l0,0a11.27,11.27,0,0,0-5.11-4.92l0,0A7.3,7.3,0,0,1,35.92,46v-.07A11,11,0,0,0,34,39.08a7.1,7.1,0,0,1,0-8Z"/><path class="cls-1" d="M51.54,54.93a1.93,1.93,0,0,0,2.65-.61L77,17.86a1.92,1.92,0,1,0-3.26-2L50.93,52.28A1.93,1.93,0,0,0,51.54,54.93Z"/><path class="cls-1" d="M53.58,35.16c4.68,0,8.49-4.34,8.49-9.67s-3.81-9.68-8.49-9.68-8.48,4.34-8.48,9.68S48.9,35.16,53.58,35.16Zm0-15.5c2.56,0,4.64,2.61,4.64,5.83s-2.08,5.83-4.64,5.83-4.64-2.62-4.64-5.83S51,19.66,53.58,19.66Z"/><path class="cls-1" d="M65.81,44.65c0,5.34,3.81,9.67,8.48,9.67s8.49-4.34,8.49-9.67S79,35,74.29,35,65.81,39.31,65.81,44.65Zm13.13,0c0,3.22-2.09,5.83-4.65,5.83s-4.64-2.61-4.64-5.83,2.08-5.83,4.64-5.83S78.94,41.43,78.94,44.65Z"/><path class="cls-1" d="M104.47,76.55a9.71,9.71,0,0,0-12.82-3.9L76.6,79.76a12.24,12.24,0,0,0-10.45-6.45l-13.89-.38a14.82,14.82,0,0,1-6.32-1.63l-1.41-.74a25,25,0,0,0-23.1,0l.09-3.2a1.92,1.92,0,0,0-1.87-2L4.42,65a1.92,1.92,0,0,0-2,1.87l-.92,33.43a1.92,1.92,0,0,0,1.87,2l15.23.41h.05a1.91,1.91,0,0,0,1.92-1.86l0-1.6,4-2.12a6.78,6.78,0,0,1,5.07-.56l23.63,6.64.13,0a25.75,25.75,0,0,0,15.9-1.8l.24-.13,34.27-22.17A1.93,1.93,0,0,0,104.47,76.55Zm-99,21.93.82-29.59,11.39.31-.82,29.59ZM67.6,98a21.7,21.7,0,0,1-13.32,1.49L30.71,92.84a10.65,10.65,0,0,0-7.92.87l-2,1.08.54-19.67A21.13,21.13,0,0,1,42.76,74l1.42.74a18.6,18.6,0,0,0,8,2.06l13.9.38a8.41,8.41,0,0,1,8,6.71l-20.69-.57a1.93,1.93,0,0,0-.1,3.85l22.83.62h.06a1.92,1.92,0,0,0,1.92-1.86,12.28,12.28,0,0,0-.19-2.5l15.43-7.29,0,0A5.86,5.86,0,0,1,100,77Z"/></svg>