<svg id="Capa_1" data-name="Capa 1" xmlns="http://www.w3.org/2000/svg" viewBox="0 0 487.16 345.59"><defs><style>.cls-1{fill:#aa5c3b;}</style></defs><title>iconos</title><path class="cls-1" d="M457.27,1H145.67c-12.36,0-12.37,19.25,0,19.25h311.6a9.62,9.62,0,0,1,9.62,9.62v227.4a9.63,9.63,0,0,1-9.62,9.63H288.78a9.62,9.62,0,0,0-7.55,3.66l-38.82,49.17-41.17-49.37a9.61,9.61,0,0,0-7.39-3.46h-164a9.63,9.63,0,0,1-9.62-9.63V29.87a9.62,9.62,0,0,1,9.62-9.62H66.51C78.86,20.25,78.88,1,66.51,1H29.89A28.9,28.9,0,0,0,1,29.87v227.4a28.9,28.9,0,0,0,28.87,28.87H189.35l45.88,55a9.68,9.68,0,0,0,14.94-.2l43.28-54.83H457.27a28.9,28.9,0,0,0,28.87-28.87V29.87A28.9,28.9,0,0,0,457.27,1Z"/><path class="cls-1" d="M54.31,124.81a9.62,9.62,0,0,0,1.74,9.11l18.74,22.62-1.86,29.32c-1.47,23,33-1.42,40.45-1.28s41.9,24,40.45,1.28L152,156.54l18.74-22.62a9.76,9.76,0,0,0-5-15.46l-28.46-7.28L121.51,86.37a9.76,9.76,0,0,0-16.26,0L89.53,111.18l-28.46,7.28a9.64,9.64,0,0,0-6.76,6.35ZM98,128.87c7.11-1.82,11.8-13.72,15.38-19.38,3.52,5.56,8.33,17.58,15.38,19.38l17.44,4.47-11.49,13.87a9.64,9.64,0,0,0-2.19,6.74l1.14,18-16.73-6.64a9.57,9.57,0,0,0-7.1,0l-16.74,6.64,1.14-18A9.55,9.55,0,0,0,92,147.21L80.56,133.34Z"/><path class="cls-1" d="M301.69,124.81a9.64,9.64,0,0,0-6.77-6.35l-28.45-7.28L250.75,86.37a9.76,9.76,0,0,0-16.26,0l-15.72,24.81-28.46,7.28a9.63,9.63,0,0,0-5,15.46L204,156.54l-1.87,29.32c-1.46,23,33-1.42,40.46-1.28s41.9,24,40.45,1.28l-1.86-29.32L300,133.92a9.62,9.62,0,0,0,1.74-9.11ZM264,147.21a9.59,9.59,0,0,0-2.19,6.74l1.14,18c-6-2.39-13.68-7.32-20.28-7.32s-14.29,4.94-20.29,7.32l1.15-18a9.6,9.6,0,0,0-2.2-6.74L209.8,133.34l17.44-4.47c7.11-1.82,11.8-13.72,15.38-19.38,3.52,5.56,8.33,17.58,15.38,19.38l17.44,4.47Z"/><path class="cls-1" d="M430.93,124.81a9.66,9.66,0,0,0-6.77-6.35l-28.45-7.28L380,86.37a9.75,9.75,0,0,0-16.25,0L348,111.18l-28.45,7.28a9.75,9.75,0,0,0-5,15.46l18.73,22.62-1.86,29.32c-1.46,23,33-1.43,40.46-1.28s41.9,24,40.45,1.28l-1.86-29.32,18.73-22.62a9.59,9.59,0,0,0,1.75-9.11Zm-37.74,22.4A9.59,9.59,0,0,0,391,154l1.14,18-16.74-6.64a9.55,9.55,0,0,0-7.09,0l-16.74,6.64,1.14-18a9.59,9.59,0,0,0-2.19-6.74L339,133.34l17.45-4.47c7.11-1.82,11.79-13.72,15.38-19.38,3.52,5.56,8.33,17.58,15.37,19.38l17.45,4.47Z"/><rect class="cls-1" x="60.72" y="1" width="94.09" height="19.25"/></svg>